# xmcd
#
# Track frame offsets:
#	150
#	16991
#	26963
#	37773
#
# Disc length: 708 seconds
#
# Revision: 1
# Processed by: cddbd v1.4b42PL1 Copyright (c) Steve Scherf et al.
# Submitted via: audiograbber 1.80
#
DISCID=2502c204
DTITLE=El Diablo - The Wandering One
DYEAR=1900
DGENRE=
TTITLE0=The Wandering One
TTITLE1=Heat
TTITLE2=Dancing Steps
TTITLE3=To Hell With Love
EXTD=
EXTT0=
EXTT1=
EXTT2=
EXTT3=
PLAYORDER=
